<?xml version="1.0" encoding="utf-8"?>
<!-- Generator: Adobe Illustrator 22.0.1, SVG Export Plug-In . SVG Version: 6.00 Build 0)  -->
<svg version="1.1" id="图层_1" xmlns="http://www.w3.org/2000/svg" xmlns:xlink="http://www.w3.org/1999/xlink" x="0px" y="0px"
	 viewBox="0 0 113 25" style="enable-background:new 0 0 113 25;" xml:space="preserve">
<style type="text/css">
	.st0{fill:url(#SVGID_1_);}
	.st1{fill:#2B2B58;}
</style>
<linearGradient id="SVGID_1_" gradientUnits="userSpaceOnUse" x1="-238.5574" y1="393.7476" x2="-237.5574" y2="392.7476" gradientTransform="matrix(24 0 0 -25 5727 9842)">
	<stop  offset="0" style="stop-color:#FF9E88"/>
	<stop  offset="1" style="stop-color:#FF572E"/>
</linearGradient>
<path class="st0" d="M3,12c-0.1,5.6,4.9,10.1,9,10c4.1,0.1,9.1-4.4,9-10c0.1-1.2-0.7-1.9-2-2h-3c-3.5,0.1-5.7-2-6-5c0.3-3,2.5-5,6-5
	h7v3h-7c-2-0.1-2.8,0.7-3,2c0.2,1.4,1.1,2.2,3,2h3c2.8,0.2,5,2.1,5,5c0,7.3-6.3,13-12,13S0,19.3,0,12V0h9v3H3V12z M6,13h3
	c-0.2,1.8,1.3,3.2,3,3c1.7,0.2,3.2-1.2,3-3h3c0,3.4-2.8,6-6,6S6,16.4,6,13z"/>
<path class="st1" d="M35,8.8h-2.6v-2h7.5v2h-2.6V18H35V8.8z M44,9.4c2.6,0,4.1,1.7,4.1,4.5c0,0.2,0,0.3,0,0.5h-5.9
	c0,1.1,0.9,1.9,2.2,1.9c1.1,0,1.8-0.7,2-1l1.5,1.1c-0.3,0.6-1.4,1.8-3.5,1.8c-2.7,0-4.4-1.9-4.4-4.4C39.9,11.3,41.6,9.4,44,9.4z
	 M45.8,12.9c0-1-0.8-1.7-1.8-1.7c-1,0-1.7,0.7-1.8,1.7H45.8z M56.6,13.2V18h-2.2v-5.1c0-0.9-0.6-1.5-1.4-1.5c-0.9,0-1.5,0.7-1.5,1.6
	v5h-2.2V9.6h2.2v1c0.4-0.6,1.2-1.2,2.2-1.2C56.1,9.4,56.6,11.4,56.6,13.2z M62.3,9.4c2.6,0,4.5,1.9,4.5,4.4c0,2.5-1.9,4.4-4.5,4.4
	c-2.6,0-4.5-1.8-4.5-4.4C57.8,11.3,59.7,9.4,62.3,9.4z M62.3,16.3c1.3,0,2.3-1,2.3-2.4c0-1.4-1-2.5-2.3-2.5c-1.3,0-2.3,1-2.3,2.5
	C60,15.3,60.9,16.3,62.3,16.3z M72.5,11.7c-1.6,0-2.3,1-2.3,2.7V18H68V9.6h2.2v1.2c0.4-0.8,1.2-1.4,2.3-1.4V11.7z M73.2,16.7
	l1.3-1.2c0.4,0.5,1,0.9,1.9,0.9c0.6,0,1-0.3,1-0.8c0-1.3-4-0.8-4-3.8c0-1.6,1.3-2.5,3-2.5c1.6,0,2.5,0.8,2.9,1.5L78,12
	c-0.3-0.3-0.7-0.8-1.5-0.8c-0.5,0-0.9,0.3-0.9,0.7c0,1.3,4,0.7,4,3.7c0,1.6-1.4,2.7-3.2,2.7C74.7,18.2,73.7,17.4,73.2,16.7z
	 M88.1,13.2V18h-2.2v-5.1c0-0.9-0.6-1.5-1.4-1.5c-0.9,0-1.5,0.7-1.5,1.6v5h-2.2V6.4H83v4.2c0.4-0.6,1.1-1.2,2.2-1.2
	C87.6,9.4,88.1,11.4,88.1,13.2z M92.5,12.6c0.8,0,1.5,0.3,1.8,0.5v-0.5c0-0.7-0.5-1.2-1.5-1.2c-0.8,0-1.6,0.3-2.2,0.6l-0.8-1.5
	c0.8-0.5,2-1,3.3-1c2.7,0,3.5,1.4,3.5,3.3V18h-2l-0.1-0.5c-0.4,0.5-1.1,0.8-2,0.8c-1.7,0-3.1-1-3.1-2.8
	C89.3,13.8,90.6,12.6,92.5,12.6z M92.9,16.5c0.8,0,1.4-0.4,1.4-1.2c0-0.7-0.6-1.2-1.5-1.2c-0.8,0-1.4,0.5-1.4,1.2
	S92.1,16.5,92.9,16.5z M102.6,11.7c-1.6,0-2.3,1-2.3,2.7V18h-2.2V9.6h2.2v1.2c0.4-0.8,1.2-1.4,2.3-1.4V11.7z M107.2,9.4
	c2.6,0,4.1,1.7,4.1,4.5c0,0.2,0,0.3,0,0.5h-5.9c0,1.1,0.9,1.9,2.2,1.9c1.1,0,1.8-0.7,2-1l1.5,1.1c-0.3,0.6-1.4,1.8-3.5,1.8
	c-2.7,0-4.4-1.9-4.4-4.4C103.2,11.3,104.9,9.4,107.2,9.4z M109.1,12.9c0-1-0.8-1.7-1.8-1.7c-1,0-1.7,0.7-1.8,1.7H109.1z"/>
</svg>
